<svg version="1.1" xmlns="http://www.w3.org/2000/svg" xmlns:xlink="http://www.w3.org/1999/xlink" x="0px" y="0px" viewBox="0 0 898.9 307.3" style="enable-background:new 0 0 898.9 307.3;" xml:space="preserve">
<style type="text/css">.st0{fill:#FFFFFF;} .st1{fill:#F00F00;}</style>
<path class="st0" d="M173.5,118.7l-79.8-0.3c-1.9,0-3.5-0.8-4.6-2.1c-1.2-1.4-1.6-3.4-1.3-5.4l9.9-50c0.7-4,4.4-7.2,8.3-7.2 l101.6,0.1c3.3,0,6.5-2.8,7.2-6.2l7.6-40.9c0.4-3.6-1.2-5.6-4.7-6.1L61,0c-3.3,0-6.6,2.8-7.2,6.2L-1,302.8c-0.3,1.7,0.1,3.3,1,4.4 c0.9,1.1,2.2,1.6,3.7,1.6l42,0.2c3.3,0,6.6-2.8,7.2-6.2l22.8-124.1c0.7-3.9,4.5-7.2,8.3-7.2l79.9,0.3c3.3,0,6.5-2.8,7.2-6.2 l7.2-40.9c0.3-1.7-0.1-3.3-1-4.4C176.3,119.3,175,118.7,173.5,118.7z"/>
<path class="st0" d="M415.8,0.9L285.3,0.4c-16.1,0-25.7,8.3-28.7,24.8l-47.4,259.7c-3.4,16,3,24.3,19.4,24.8l130.6,0.6 c16.1,0,25.7-8.3,28.7-24.8l47.4-259.7C438.6,9.7,432.2,1.4,415.8,0.9z M372.3,66l-32.8,179c-1.2,6.6-7.4,11.9-13.8,11.9 l-46.2-0.2c-6.7,0-10.8-6-9.7-12.2l32.8-178.7c1.2-6.6,7.4-11.9,13.8-11.9h46.2C369.3,53.7,373.4,59.7,372.3,66z"/>
<path class="st0" d="M632.4,0.6L501.9,0c-16.1,0-25.7,8.3-28.7,24.8l-47.4,259.7c-3.4,16,3.1,24.3,19.4,24.8l130.6,0.6 c16.1,0,25.7-8.3,28.7-24.8l47.4-259.7C655.2,9.3,648.8,1.1,632.4,0.6z M589.8,66l-32.6,179c-1.2,6.6-7.4,11.9-13.8,11.9 l-46.2-0.2c-6.7,0-10.8-6-9.6-12.2l32.6-178.7c1.2-6.6,7.4-11.9,13.8-11.9h46.2C586.9,53.7,591,59.7,589.8,66z"/>
<path class="st1" d="M878.6,1.4l-65.4-0.3l-5.2,26.8h22.9c6.7,0,10.8,6,9.7,12.3l-42,231.5c-1.2,6.6-7.4,11.9-13.8,11.9 l-23.2-0.1l-4.8,26.9l65.2,0.3c16.1,0,25.7-8.3,28.7-24.8L898,26.2C901.4,10.2,894.9,1.9,878.6,1.4z"/>
<path class="st1" d="M718.2,0.9c-16.1,0-25.7,8.3-28.7,24.8l-47.4,259.7c-3.4,16,3.1,24.3,19.4,24.8l65.4,0.3l4.7-26.8l-23.1-0.1 c-6.7,0-10.8-6-9.6-12.3l42.3-231.4c1.2-6.6,7.4-11.9,13.8-11.9h23.3l5-26.8L718.2,0.9z"/>
</svg>